<svg width="276" height="72" viewBox="0 0 276 72" fill="none" xmlns="http://www.w3.org/2000/svg">
<mask id="mask0_4_38" style="mask-type:alpha" maskUnits="userSpaceOnUse" x="6" y="15" width="256" height="48">
<path d="M227.168 15.6348H245.195C248.601 15.6348 251.543 16.2907 254.018 17.6026C256.494 18.9144 258.377 20.7447 259.668 23.0933C260.979 25.4208 261.635 28.0974 261.635 31.1231C261.635 34.1911 260.969 36.8994 259.636 39.2481C258.324 41.5756 256.409 43.3846 253.891 44.6753C251.394 45.966 248.411 46.6114 244.941 46.6114H236.689V61.5918H227.168V15.6348ZM243.418 38.9307C246.168 38.9307 248.252 38.2325 249.67 36.836C251.109 35.4183 251.818 33.514 251.796 31.1231C251.818 28.7744 251.109 26.9125 249.67 25.5371C248.252 24.1618 246.168 23.4636 243.418 23.4424H236.689V38.9307H243.418Z" fill="white"/>
<path d="M222.023 15.6348V45.4688C222.023 48.7907 221.23 51.7212 219.643 54.2603C218.056 56.7993 215.824 58.7671 212.946 60.1636C210.069 61.5389 206.747 62.2266 202.98 62.2266C199.214 62.2266 195.892 61.5389 193.015 60.1636C190.158 58.7671 187.937 56.7993 186.35 54.2603C184.784 51.7212 184.001 48.7907 184.001 45.4688V15.6348H193.522V44.7071C193.522 46.4632 193.914 48.0396 194.697 49.4361C195.501 50.8114 196.612 51.8905 198.029 52.6734C199.468 53.4562 201.118 53.8477 202.98 53.8477C204.864 53.8477 206.525 53.4562 207.963 52.6734C209.402 51.8905 210.502 50.8114 211.264 49.4361C212.047 48.0396 212.438 46.4632 212.438 44.7071V15.6348H222.023Z" fill="white"/>
<path d="M178.603 42.3584H157.656V34.8682H178.603V42.3584Z" fill="white"/>
<path d="M120.71 15.6348H138.737C142.144 15.6348 145.085 16.2907 147.56 17.6026C150.036 18.9144 151.919 20.7447 153.21 23.0933C154.522 25.4208 155.178 28.0974 155.178 31.1231C155.178 34.1911 154.511 36.8994 153.178 39.2481C151.866 41.5756 149.951 43.3846 147.433 44.6753C144.937 45.966 141.953 46.6114 138.483 46.6114H130.231V61.5918H120.71V15.6348ZM136.96 38.9307C139.71 38.9307 141.795 38.2325 143.212 36.836C144.651 35.4183 145.36 33.514 145.339 31.1231C145.36 28.7744 144.651 26.9125 143.212 25.5371C141.795 24.1618 139.71 23.4636 136.96 23.4424H130.231V38.9307H136.96Z" fill="white"/>
<path d="M85.0334 15.6348H115.883V23.5059H94.5549V34.6778H114.296V42.5489H94.5549V53.7207H115.946V61.5918H85.0334V15.6348Z" fill="white"/>
<path d="M44.0885 15.6348H81.7301V23.5059H67.6383V61.5918H58.1803V23.5059H44.0885V15.6348Z" fill="white"/>
<path d="M32.4697 28.7744C32.2793 26.9548 31.4858 25.5371 30.0894 24.5215C28.714 23.5059 26.8626 22.9981 24.5352 22.9981C22.9482 22.9981 21.5835 23.2308 20.4409 23.6963C19.3195 24.1407 18.4626 24.7648 17.8701 25.5689C17.2777 26.3729 16.9814 27.2827 16.9814 28.2984C16.9814 29.8218 17.6374 31.0279 18.9492 31.9165C20.2822 32.784 22.0807 33.4717 24.3447 33.9795L28.4707 34.9951C32.7236 35.9685 36.0773 37.5554 38.5317 39.7559C40.9862 41.9353 42.224 44.834 42.2451 48.4522C42.2451 51.2451 41.5363 53.6784 40.1187 55.752C38.701 57.8256 36.6592 59.423 33.9932 60.5445C31.3271 61.6659 28.1533 62.2266 24.4717 62.2266C20.7477 62.2478 17.521 61.687 14.7915 60.5445C12.062 59.4019 9.93555 57.7092 8.41211 55.4663C6.88867 53.2235 6.08464 50.4834 6 47.2461H15.2676C15.4157 49.5101 16.3044 51.2451 17.9336 52.4512C19.584 53.6361 21.721 54.2285 24.3447 54.2285C25.9951 54.2285 27.4445 53.9852 28.6929 53.4986C29.9412 53.0119 30.904 52.3348 31.5811 51.4673C32.2581 50.5998 32.5967 49.5948 32.5967 48.4522C32.5967 46.9711 31.9513 45.7967 30.6606 44.9292C29.3911 44.0406 27.4128 43.2683 24.7256 42.6123L19.7109 41.4063C11.3743 39.3539 7.20605 35.1856 7.20605 28.9014C7.20605 26.1719 7.94661 23.7598 9.42773 21.6651C10.93 19.5492 12.993 17.9094 15.6167 16.7456C18.2616 15.5819 21.2555 15 24.5986 15C27.9417 15 30.8934 15.5819 33.4536 16.7456C36.0138 17.9094 38.0028 19.5386 39.4204 21.6333C40.8381 23.7069 41.568 26.0873 41.6104 28.7744H32.4697Z" fill="white"/>
</mask>
<g mask="url(#mask0_4_38)">
<rect x="6" y="1.00003" width="256" height="83" fill="url(#paint0_linear_4_38)"/>
</g>
<path d="M275.815 17.527C270.462 13.7886 256.655 10.9645 257.856 19.7654C259.004 28.1821 271.4 23.8493 275.815 17.527Z" fill="#84BE4A"/>
<path d="M269.009 0.319116C260.555 1.20483 244.597 10.5304 253.323 18.5529C261.668 26.225 270.103 10.7619 269.009 0.319116Z" fill="#609E43"/>
<defs>
<linearGradient id="paint0_linear_4_38" x1="262" y1="42.5" x2="6" y2="42.5001" gradientUnits="userSpaceOnUse">
<stop stop-color="#C8D53E"/>
<stop offset="0.182292" stop-color="#A3C844"/>
<stop offset="0.395833" stop-color="#84BE4A"/>
<stop offset="0.609375" stop-color="#609E43"/>
<stop offset="1" stop-color="#3C6C3B"/>
</linearGradient>
</defs>
</svg>
