<svg width="22" height="24" viewBox="0 0 22 24" fill="none" xmlns="http://www.w3.org/2000/svg">
<path d="M19.33 13.0967C19.3767 12.7467 19.4 12.385 19.4 12C19.4 11.6267 19.3767 11.2533 19.3183 10.9033L21.6867 9.05999C21.8967 8.89665 21.955 8.58165 21.8267 8.34832L19.5867 4.47499C19.4467 4.21832 19.155 4.13665 18.8983 4.21832L16.11 5.33832C15.5267 4.89499 14.9083 4.52165 14.22 4.24165L13.8 1.27832C13.7533 0.998321 13.52 0.799988 13.24 0.799988H8.76C8.48 0.799988 8.25833 0.998321 8.21167 1.27832L7.79167 4.24165C7.10333 4.52165 6.47333 4.90665 5.90167 5.33832L3.11333 4.21832C2.85667 4.12499 2.565 4.21832 2.425 4.47499L0.196668 8.34832C0.0566675 8.59332 0.103334 8.89665 0.336667 9.05999L2.705 10.9033C2.64667 11.2533 2.6 11.6383 2.6 12C2.6 12.3617 2.62333 12.7467 2.68167 13.0967L0.313334 14.94C0.103334 15.1033 0.0450009 15.4183 0.173334 15.6517L2.41333 19.525C2.55333 19.7817 2.845 19.8633 3.10167 19.7817L5.89 18.6617C6.47333 19.105 7.09167 19.4783 7.78 19.7583L8.2 22.7217C8.25833 23.0017 8.48 23.2 8.76 23.2H13.24C13.52 23.2 13.7533 23.0017 13.7883 22.7217L14.2083 19.7583C14.8967 19.4783 15.5267 19.105 16.0983 18.6617L18.8867 19.7817C19.1433 19.875 19.435 19.7817 19.575 19.525L21.815 15.6517C21.955 15.395 21.8967 15.1033 21.675 14.94L19.33 13.0967ZM11 16.2C8.69 16.2 6.8 14.31 6.8 12C6.8 9.68999 8.69 7.79999 11 7.79999C13.31 7.79999 15.2 9.68999 15.2 12C15.2 14.31 13.31 16.2 11 16.2Z" fill="#BEBEBE"/>
</svg>
